<svg xmlns="http://www.w3.org/2000/svg" viewBox="0 0 1400 1000" width="1400" height="1000" role="img" fill="none"><rect width="1400" height="1000" fill="#F5F4F3"/><rect x="60" y="60" width="1280" height="880" rx="0" fill="#FFFFFF" stroke="rgba(1,34,88,0.14)" stroke-width="1.5"/>
   <rect x="60" y="60" width="1280" height="1.5" fill="rgba(1,34,88,0.12)"/>
   <g fill="rgba(1,34,88,0.35)"><rect x="110" y="118" width="128" height="8" rx="2"/><rect x="1210" y="118" width="30" height="8" rx="2"/></g>
   <rect x="110" y="170" width="1180" height="1.5" fill="rgba(1,34,88,0.1)"/>
   <rect x="110" y="220" width="520" height="380" rx="0" fill="#F5F4F3" stroke="rgba(1,34,88,0.1)" stroke-width="1.5"/>
   
  <g transform="translate(370 410) scale(2.2)" stroke="#012258" stroke-width="1.0000000000000002"
     stroke-linecap="square" stroke-linejoin="miter" fill="none">
    <circle cx="0" cy="0" r="46"/>
    <path d="M-30 22 L0 -24 L30 22"/>
    <path d="M-30 22 L30 22"/>
    <path d="M-16 22 L-16 2 M16 22 L16 2"/>
  </g>
   <g stroke="rgba(1,34,88,0.25)" stroke-width="1" stroke-dasharray="5 5">
     <rect x="230" y="290" width="280" height="240"/>
   </g>
   <rect x="690" y="232" width="420" height="22" rx="2" fill="rgba(1,34,88,0.7)"/><rect x="690" y="270" width="360" height="22" rx="2" fill="rgba(1,34,88,0.7)"/>
   <rect x="690" y="322" width="600" height="10" rx="2" fill="rgba(1,34,88,0.16)"/><rect x="690" y="347" width="560" height="10" rx="2" fill="rgba(1,34,88,0.16)"/><rect x="690" y="372" width="470" height="10" rx="2" fill="rgba(1,34,88,0.16)"/>
   <g>
     <rect x="690" y="440" width="150" height="150" fill="#012258"/>
     <rect x="860" y="440" width="150" height="150" fill="#F5F4F3" stroke="rgba(1,34,88,0.12)"/>
     <rect x="1030" y="440" width="150" height="150" fill="#FFFFFF" stroke="rgba(1,34,88,0.12)"/>
     <g fill="rgba(1,34,88,0.4)">
       <rect x="690" y="608" width="90" height="7" rx="2"/><rect x="860" y="608" width="90" height="7" rx="2"/>
       <rect x="1030" y="608" width="90" height="7" rx="2"/>
     </g>
   </g>
   <rect x="110" y="660" width="1180" height="1.5" fill="rgba(1,34,88,0.1)"/>
   <text x="110" y="810" font-family="Georgia,serif" font-size="150" fill="#012258" font-weight="400">Aa</text>
   <rect x="430" y="700" width="420" height="12" rx="2" fill="rgba(1,34,88,0.16)"/><rect x="430" y="734" width="500" height="12" rx="2" fill="rgba(1,34,88,0.16)"/><rect x="430" y="768" width="360" height="12" rx="2" fill="rgba(1,34,88,0.16)"/><rect x="430" y="802" width="460" height="12" rx="2" fill="rgba(1,34,88,0.16)"/>
   <rect x="980" y="700" width="300" height="12" rx="2" fill="rgba(1,34,88,0.16)"/><rect x="980" y="734" width="240" height="12" rx="2" fill="rgba(1,34,88,0.16)"/></svg>
