<svg xmlns="http://www.w3.org/2000/svg" viewBox="0 0 1400 1000" width="1400" height="1000" role="img" fill="none"><rect width="1400" height="1000" fill="#F5F4F3"/><rect x="120" y="140" width="700" height="760" rx="0" fill="#012258" stroke="none" stroke-width="1.5"/>
   
  <g transform="translate(470 400) scale(1.8)" stroke="#FFFFFF" stroke-width="1.3333333333333333"
     stroke-linecap="square" stroke-linejoin="miter" fill="none">
    <circle cx="0" cy="0" r="46"/>
    <path d="M-30 22 L0 -24 L30 22"/>
    <path d="M-30 22 L30 22"/>
    <path d="M-16 22 L-16 2 M16 22 L16 2"/>
  </g>
   <g fill="rgba(255,255,255,0.3)"><rect x="200" y="600" width="380" height="14" rx="2"/><rect x="200" y="632" width="260" height="14" rx="2"/></g>
   <rect x="560" y="300" width="480" height="340" rx="0" fill="#FFFFFF" stroke="rgba(1,34,88,0.12)" stroke-width="1.5"/>
   <rect x="610" y="350" width="300" height="12" rx="2" fill="rgba(1,34,88,0.16)"/><rect x="610" y="380" width="380" height="12" rx="2" fill="rgba(1,34,88,0.16)"/><rect x="610" y="410" width="240" height="12" rx="2" fill="rgba(1,34,88,0.16)"/>
   <rect x="610" y="530" width="140" height="42" fill="#012258"/>
   <rect x="700" y="660" width="560" height="260" rx="0" fill="#F5F4F3" stroke="rgba(1,34,88,0.12)" stroke-width="1.5"/>
   <rect x="750" y="706" width="340" height="11" rx="2" fill="rgba(1,34,88,0.16)"/><rect x="750" y="733" width="420" height="11" rx="2" fill="rgba(1,34,88,0.16)"/><rect x="750" y="760" width="280" height="11" rx="2" fill="rgba(1,34,88,0.16)"/>
   
  <g transform="translate(1180 760) scale(0.7)" stroke="#012258" stroke-width="3.1428571428571432"
     stroke-linecap="square" stroke-linejoin="miter" fill="none">
    <circle cx="0" cy="0" r="46"/>
    <path d="M-30 22 L0 -24 L30 22"/>
    <path d="M-30 22 L30 22"/>
    <path d="M-16 22 L-16 2 M16 22 L16 2"/>
  </g></svg>
