<svg xmlns="http://www.w3.org/2000/svg" viewBox="0 0 1600 1140" width="1600" height="1140" role="img" fill="none"><rect width="1600" height="1140" fill="#F5F4F3"/><rect x="0" y="880" width="1600" height="260" fill="rgba(1,34,88,0.06)"/>
   <rect x="0" y="880" width="1600" height="2" fill="rgba(1,34,88,0.18)"/>
   <rect x="360" y="560" width="26" height="320" fill="rgba(1,34,88,0.3)"/>
   <rect x="1214" y="560" width="26" height="320" fill="rgba(1,34,88,0.3)"/>
   <rect x="180" y="140" width="1240" height="420" rx="0" fill="#012258" stroke="none" stroke-width="1.5"/>
   <rect x="180" y="140" width="1240" height="420" stroke="rgba(1,34,88,0.25)" stroke-width="2"/>
   
  <g transform="translate(360 350) scale(1.9)" stroke="#FFFFFF" stroke-width="1.368421052631579"
     stroke-linecap="square" stroke-linejoin="miter" fill="none">
    <circle cx="0" cy="0" r="46"/>
    <path d="M-30 22 L0 -24 L30 22"/>
    <path d="M-30 22 L30 22"/>
    <path d="M-16 22 L-16 2 M16 22 L16 2"/>
  </g>
   <g fill="rgba(255,255,255,0.86)">
     <rect x="540" y="246" width="620" height="26" rx="3"/>
     <rect x="540" y="294" width="470" height="26" rx="3"/>
   </g>
   <g fill="rgba(255,255,255,0.34)">
     <rect x="540" y="366" width="380" height="12" rx="2"/>
   </g>
   <rect x="540" y="422" width="168" height="44" fill="#FFFFFF"/>
   <rect x="576" y="442" width="96" height="7" rx="2" fill="#012258"/>
   <g stroke="rgba(1,34,88,0.14)" stroke-width="1.5">
     <path d="M120 880 L120 810"/><path d="M1480 880 L1480 810"/>
   </g></svg>
