<svg xmlns="http://www.w3.org/2000/svg" viewBox="0 0 1400 1000" width="1400" height="1000" role="img" fill="none"><rect width="1400" height="1000" fill="#F5F4F3"/><rect x="140" y="180" width="620" height="800" rx="0" fill="#FFFFFF" stroke="rgba(1,34,88,0.14)" stroke-width="1.5"/>
   
  <g transform="translate(300 320) scale(0.9)" stroke="#012258" stroke-width="2.4444444444444446"
     stroke-linecap="square" stroke-linejoin="miter" fill="none">
    <circle cx="0" cy="0" r="46"/>
    <path d="M-30 22 L0 -24 L30 22"/>
    <path d="M-30 22 L30 22"/>
    <path d="M-16 22 L-16 2 M16 22 L16 2"/>
  </g>
   <rect x="210" y="460" width="420" height="10" rx="2" fill="rgba(1,34,88,0.16)"/><rect x="210" y="488" width="480" height="10" rx="2" fill="rgba(1,34,88,0.16)"/><rect x="210" y="516" width="360" height="10" rx="2" fill="rgba(1,34,88,0.16)"/><rect x="210" y="544" width="440" height="10" rx="2" fill="rgba(1,34,88,0.16)"/>
   <rect x="210" y="820" width="220" height="1.5" fill="rgba(1,34,88,0.14)"/>
   <rect x="700" y="300" width="520" height="300" rx="0" fill="#012258" stroke="none" stroke-width="1.5"/>
   
  <g transform="translate(960 430) scale(1.3)" stroke="#FFFFFF" stroke-width="1.8461538461538463"
     stroke-linecap="square" stroke-linejoin="miter" fill="none">
    <circle cx="0" cy="0" r="46"/>
    <path d="M-30 22 L0 -24 L30 22"/>
    <path d="M-30 22 L30 22"/>
    <path d="M-16 22 L-16 2 M16 22 L16 2"/>
  </g>
   <rect x="760" y="640" width="520" height="300" rx="0" fill="#FFFFFF" stroke="rgba(1,34,88,0.12)" stroke-width="1.5"/>
   <g fill="rgba(1,34,88,0.2)"><rect x="820" y="760" width="220" height="12" rx="2"/><rect x="820" y="790" width="150" height="12" rx="2"/></g>
   
  <g transform="translate(1180 780) scale(0.7)" stroke="#012258" stroke-width="3.1428571428571432"
     stroke-linecap="square" stroke-linejoin="miter" fill="none">
    <circle cx="0" cy="0" r="46"/>
    <path d="M-30 22 L0 -24 L30 22"/>
    <path d="M-30 22 L30 22"/>
    <path d="M-16 22 L-16 2 M16 22 L16 2"/>
  </g></svg>
